C:\Users\israe\Dropbox\PhDWork\ExperimentalData\subject14\055\P14S055W13_filtered35.mot
nRows=13
nColumns=28

name C:\Users\israe\Dropbox\PhDWork\ExperimentalData\subject14\055\P14S055W13_filtered35.mot
datacolumns 28
datarows 13
range 0.0000000000 0.0120000000
endheader
time	ground_force_1_vx	ground_force_1_vy	ground_force_1_vz	ground_force_1_px	ground_force_1_py	ground_force_1_pz	ground_moment_1_mx	ground_moment_1_my	ground_moment_1_mz	ground_force_2_vx	ground_force_2_vy	ground_force_2_vz	ground_force_2_px	ground_force_2_py	ground_force_2_pz	ground_moment_2_mx	ground_moment_2_my	ground_moment_2_mz	ground_force_3_vx	ground_force_3_vy	ground_force_3_vz	ground_force_3_px	ground_force_3_py	ground_force_3_pz	ground_moment_3_mx	ground_moment_3_my	ground_moment_3_mz
        0.0000000000	        0.0000000000	        0.0000000000	        0.0000000000	        0.1988394955	        0.0000558755	       -0.3004071329	        0.0000000000	        0.0000000000	       -0.0000000000	        0.0000000000	        0.0000000000	       -0.0000000000	        0.2029003516	       -0.0000795827	        0.4543649445	       -0.0000000000	       -0.0000000000	       -0.0000000000	       39.7474509983	      630.0434044510	       35.2330988763	        0.2076431971	        0.0000770316	        1.3583900146	     -115.1160641295	       11.0394609562	      -57.5546639807	
        0.0010000000	        0.0000000000	        0.0000000000	        0.0000000000	        0.1988394955	        0.0000558755	       -0.3004071329	        0.0000000000	        0.0000000000	       -0.0000000000	        0.0000000000	        0.0000000000	       -0.0000000000	        0.2029003516	       -0.0000795827	        0.4543649445	       -0.0000000000	       -0.0000000000	       -0.0000000000	       39.6797019368	      629.6854360687	       34.8742274847	        0.2076431971	        0.0000770316	        1.3583900146	     -115.0290723951	       10.9837801368	      -57.5294224209	
        0.0020000000	        0.0000000000	        0.0000000000	        0.0000000000	        0.1988394955	        0.0000558755	       -0.3004071329	        0.0000000000	       -0.0000000000	       -0.0000000000	       -0.0000000000	        0.0000000000	       -0.0000000000	        0.2029003516	       -0.0000795827	        0.4543649445	       -0.0000000000	       -0.0000000000	       -0.0000000000	       39.6127669879	      629.3235266294	       34.5069083290	        0.2076431971	        0.0000770316	        1.3583900146	     -114.9344472148	       10.9265154144	      -57.5025538418	
        0.0030000000	       -0.0000000000	        0.0000000000	        0.0000000000	        0.1988394955	        0.0000558755	       -0.3004071329	        0.0000000000	       -0.0000000000	       -0.0000000000	       -0.0000000000	        0.0000000000	       -0.0000000000	        0.2029003516	       -0.0000795827	        0.4543649445	       -0.0000000000	       -0.0000000000	       -0.0000000000	       39.5484961567	      628.9637127306	       34.1332263050	        0.2076431971	        0.0000770316	        1.3583900146	     -114.8324339850	       10.8683086389	      -57.4745811590	
        0.0040000000	       -0.0000000000	        0.0000000000	        0.0000000000	        0.1988394955	        0.0000558755	       -0.3004071329	        0.0000000000	       -0.0000000000	       -0.0000000000	       -0.0000000000	        0.0000000000	       -0.0000000000	        0.2029003516	       -0.0000795827	        0.4543649445	       -0.0000000000	       -0.0000000000	       -0.0000000000	       39.4877247198	      628.6120824412	       33.7547611832	        0.2076431971	        0.0000770316	        1.3583900146	     -114.7237233769	       10.8094036720	      -57.4457624176	
        0.0050000000	       -0.0000000000	        0.0000000000	        0.0000000000	        0.1988394955	        0.0000558755	       -0.3004071329	        0.0000000000	       -0.0000000000	       -0.0000000000	       -0.0000000000	        0.0000000000	       -0.0000000000	        0.2029003516	       -0.0000795827	        0.4543649445	       -0.0000000000	       -0.0000000000	       -0.0000000000	       39.4299595925	      628.2748989605	       33.3736244477	        0.2076431971	        0.0000770316	        1.3583900146	     -114.6092554041	       10.7497024374	      -57.4160197151	
        0.0060000000	       -0.0000000000	        0.0000000000	        0.0000000000	        0.1988394955	        0.0000558755	       -0.3004071329	        0.0000000000	       -0.0000000000	       -0.0000000000	       -0.0000000000	        0.0000000000	       -0.0000000000	        0.2029003516	       -0.0000795827	        0.4543649445	       -0.0000000000	       -0.0000000000	       -0.0000000000	       39.3735337952	      627.9573801295	       32.9922708497	        0.2076431971	        0.0000770316	        1.3583900146	     -114.4899632074	       10.6890234203	      -57.3850289442	
        0.0070000000	       -0.0000000000	        0.0000000000	       -0.0000000000	        0.1988394955	        0.0000558755	       -0.3004071329	       -0.0000000000	       -0.0000000000	       -0.0000000000	       -0.0000000000	        0.0000000000	       -0.0000000000	        0.2029003516	       -0.0000795827	        0.4543649445	       -0.0000000000	       -0.0000000000	       -0.0000000000	       39.3165242437	      627.6620063102	       32.6121677862	        0.2076431971	        0.0000770316	        1.3583900146	     -114.3666810958	       10.6273035152	      -57.3524700616	
        0.0080000000	       -0.0000000000	        0.0000000000	       -0.0000000000	        0.1988394955	        0.0000558755	       -0.3004071329	       -0.0000000000	       -0.0000000000	        0.0000000000	       -0.0000000000	        0.0000000000	       -0.0000000000	        0.2029003516	       -0.0000795827	        0.4543649445	       -0.0000000000	        0.0000000000	       -0.0000000000	       39.2576950377	      627.3867231776	       32.2329509467	        0.2076431971	        0.0000770316	        1.3583900146	     -114.2404734436	       10.5645806297	      -57.3182454469	
        0.0090000000	       -0.0000000000	        0.0000000000	       -0.0000000000	        0.1988394955	        0.0000558755	       -0.3004071329	       -0.0000000000	       -0.0000000000	        0.0000000000	       -0.0000000000	        0.0000000000	       -0.0000000000	        0.2029003516	       -0.0000795827	        0.4543649445	        0.0000000000	        0.0000000000	        0.0000000000	       39.1969248541	      627.1240665590	       31.8525084767	        0.2076431971	        0.0000770316	        1.3583900146	     -114.1128225249	       10.5009073854	      -57.2823716455	
        0.0100000000	       -0.0000000000	        0.0000000000	       -0.0000000000	        0.1988394955	        0.0000558755	       -0.3004071329	       -0.0000000000	       -0.0000000000	        0.0000000000	       -0.0000000000	        0.0000000000	        0.0000000000	        0.2029003516	       -0.0000795827	        0.4543649445	        0.0000000000	        0.0000000000	        0.0000000000	       39.1349331278	      626.8640691753	       31.4677655406	        0.2076431971	        0.0000770316	        1.3583900146	     -113.9851617075	       10.4362770826	      -57.2446229177	
        0.0110000000	       -0.0000000000	        0.0000000000	       -0.0000000000	        0.1988394955	        0.0000558755	       -0.3004071329	       -0.0000000000	       -0.0000000000	        0.0000000000	       -0.0000000000	        0.0000000000	        0.0000000000	        0.2029003516	       -0.0000795827	        0.4543649445	        0.0000000000	        0.0000000000	        0.0000000000	       39.0723041196	      626.5989145402	       31.0762471675	        0.2076431971	        0.0000770316	        1.3583900146	     -113.8581228924	       10.3706021763	      -57.2045072513	
        0.0120000000	       -0.0000000000	        0.0000000000	       -0.0000000000	        0.1988394955	        0.0000558755	       -0.3004071329	       -0.0000000000	       -0.0000000000	        0.0000000000	       -0.0000000000	        0.0000000000	        0.0000000000	        0.2029003516	       -0.0000795827	        0.4543649445	        0.0000000000	        0.0000000000	        0.0000000000	       39.0086438665	      626.3239470356	       30.6775098802	        0.2076431971	        0.0000770316	        1.3583900146	     -113.7313094327	       10.3038211328	      -57.1616921395	
